<svg width="24" height="25" viewBox="0 0 24 25" fill="none" xmlns="http://www.w3.org/2000/svg">
<g clip-path="url(#clip0_154_303)">
<path d="M5.32068 9.18213H8.18068" stroke="url(#paint0_linear_154_303)" stroke-width="1.5" stroke-miterlimit="10" stroke-linecap="square"/>
<path d="M5.32068 13.0024H12.9507" stroke="url(#paint1_linear_154_303)" stroke-width="1.5" stroke-miterlimit="10" stroke-linecap="square"/>
<path d="M5.32068 16.8228H12.9507" stroke="url(#paint2_linear_154_303)" stroke-width="1.5" stroke-miterlimit="10" stroke-linecap="square"/>
<path d="M19.6404 22.5424H4.36037C3.98479 22.5424 3.61288 22.4685 3.26589 22.3247C2.9189 22.181 2.60362 21.9703 2.33804 21.7048C1.80169 21.1684 1.50037 20.441 1.50037 19.6824V2.50244L4.00037 4.41244L6.59037 2.50244L9.13037 4.41244L11.6804 2.50244L14.2204 4.41244L16.7704 2.50244V19.6824C16.773 20.4419 17.0766 21.1693 17.6145 21.7054C18.1524 22.2414 18.8809 22.5424 19.6404 22.5424Z" stroke="url(#paint3_linear_154_303)" stroke-width="1.5" stroke-miterlimit="10" stroke-linecap="square"/>
<path d="M18.6799 10.1333H22.4999V19.6833C22.4567 20.4139 22.1361 21.1004 21.6035 21.6024C21.071 22.1044 20.3668 22.384 19.6349 22.384C18.903 22.384 18.1988 22.1044 17.6663 21.6024C17.1337 21.1004 16.8131 20.4139 16.7699 19.6833V10.1333H18.6799Z" stroke="url(#paint4_linear_154_303)" stroke-width="1.5" stroke-miterlimit="10"/>
</g>
<defs>
<linearGradient id="paint0_linear_154_303" x1="8.18068" y1="9.68213" x2="5.32068" y2="9.68213" gradientUnits="userSpaceOnUse">
<stop stop-color="#01193F"/>
<stop offset="1" stop-color="#023B97"/>
</linearGradient>
<linearGradient id="paint1_linear_154_303" x1="12.9507" y1="13.5024" x2="5.32068" y2="13.5024" gradientUnits="userSpaceOnUse">
<stop stop-color="#01193F"/>
<stop offset="1" stop-color="#023B97"/>
</linearGradient>
<linearGradient id="paint2_linear_154_303" x1="12.9507" y1="17.3228" x2="5.32068" y2="17.3228" gradientUnits="userSpaceOnUse">
<stop stop-color="#01193F"/>
<stop offset="1" stop-color="#023B97"/>
</linearGradient>
<linearGradient id="paint3_linear_154_303" x1="19.6404" y1="12.5224" x2="1.50037" y2="12.5224" gradientUnits="userSpaceOnUse">
<stop stop-color="#01193F"/>
<stop offset="1" stop-color="#023B97"/>
</linearGradient>
<linearGradient id="paint4_linear_154_303" x1="22.4999" y1="16.2586" x2="16.7699" y2="16.2586" gradientUnits="userSpaceOnUse">
<stop stop-color="#01193F"/>
<stop offset="1" stop-color="#023B97"/>
</linearGradient>
<clipPath id="clip0_154_303">
<rect width="24" height="24" fill="white" transform="translate(0.000366211 0.0219727)"/>
</clipPath>
</defs>
</svg>
