<svg width="51" height="51" viewBox="0 0 51 51" fill="none" xmlns="http://www.w3.org/2000/svg">
<g clip-path="url(#clip0_62_44894)">
<path d="M46.9467 25.0217C46.9467 24.6652 46.7229 24.2061 46.0292 23.2965C45.7361 22.9122 45.3343 22.41 45.0038 21.9171C44.6643 21.4108 44.3126 20.7923 44.1208 20.0758C43.9292 19.3593 43.9237 18.6427 43.9641 18.0312C44.0037 17.4333 44.101 16.7949 44.1635 16.3079C44.3129 15.1445 44.2708 14.6576 44.1147 14.3914C43.9487 14.1087 43.5212 13.8195 42.4383 13.3599C41.9833 13.1669 41.3852 12.9275 40.8514 12.6621C40.3066 12.3913 39.6934 12.0311 39.1749 11.5126C38.6485 10.9862 38.2913 10.3623 38.0275 9.8138C37.771 9.28067 37.5381 8.67314 37.354 8.22689C36.9121 7.15517 36.6287 6.75288 36.3429 6.59725C36.0042 6.4129 35.4468 6.38533 34.3064 6.52604C33.8231 6.58569 33.1893 6.67876 32.6075 6.71729C32.0126 6.75667 31.3104 6.75419 30.6117 6.56673C29.9092 6.37827 29.298 6.02372 28.803 5.68986C28.3204 5.3643 27.8155 4.96233 27.4297 4.67057C26.5106 3.97548 26.0287 3.74323 25.6678 3.74284C25.3113 3.74284 24.8522 3.96469 23.9426 4.65837C23.5584 4.9514 23.0561 5.35321 22.5632 5.68376C22.0569 6.02321 21.4384 6.37495 20.722 6.56673C20.0054 6.75837 19.2889 6.76383 18.6773 6.72339C18.0794 6.68384 17.441 6.58656 16.9541 6.52401C15.7907 6.37461 15.3037 6.41671 15.0376 6.57283C14.7548 6.73875 14.4656 7.16634 14.0061 8.24927C13.813 8.70428 13.5736 9.30236 13.3082 9.83618C13.0374 10.381 12.6772 10.9941 12.1587 11.5126C11.6323 12.0391 11.0084 12.3962 10.4599 12.6601C9.9268 12.9165 9.31928 13.1495 8.87301 13.3335C7.8015 13.7754 7.39907 14.0589 7.24337 14.3446C7.05897 14.6834 7.03131 15.2421 7.17216 16.3832C7.23181 16.8664 7.3249 17.4986 7.3634 18.08C7.4028 18.675 7.40028 19.3771 7.21285 20.0758C7.02441 20.7782 6.66981 21.3896 6.33598 21.8845C6.01044 22.3671 5.60844 22.872 5.31669 23.2578C4.62098 24.1778 4.38896 24.6608 4.38896 25.0217C4.38934 25.3781 4.61148 25.8362 5.30448 26.745C5.59752 27.1292 5.99933 27.6314 6.32987 28.1243C6.66952 28.6309 7.02111 29.2507 7.21285 29.9676C7.40428 30.6839 7.40992 31.3989 7.36951 32.0103C7.32996 32.6081 7.23268 33.2466 7.17013 33.7335C7.02072 34.8969 7.06287 35.3838 7.21895 35.65C7.38677 35.936 7.81997 36.2307 8.89945 36.6917C9.35243 36.8851 9.95014 37.1251 10.4803 37.3875C11.0216 37.6555 11.6314 38.0118 12.1486 38.5207C12.6786 39.0422 13.0373 39.6622 13.3021 40.2073C13.5598 40.7376 13.7931 41.3411 13.9776 41.786C14.4182 42.8487 14.7052 43.2629 15.005 43.4299C15.342 43.6176 15.8906 43.6506 17.0232 43.5133C17.5029 43.4552 18.1367 43.3622 18.718 43.3241C19.3145 43.2851 20.017 43.2869 20.7179 43.4727C21.4247 43.66 22.0392 44.0146 22.5388 44.3495C23.0268 44.6767 23.5317 45.077 23.9202 45.3708C24.8466 46.0714 25.3209 46.3006 25.6678 46.3006C26.0145 46.3002 26.4767 46.075 27.3951 45.379C27.782 45.0858 28.2852 44.6867 28.7766 44.3577C29.2808 44.0201 29.8975 43.669 30.6076 43.4767C31.3162 43.285 32.0267 43.2759 32.634 43.3119C33.2282 43.3472 33.8629 43.438 34.3511 43.4971C35.5095 43.6371 36.0253 43.5999 36.3185 43.434C36.5973 43.2762 36.8891 42.8617 37.3459 41.7881C37.5366 41.3398 37.7736 40.74 38.0336 40.2113C38.2998 39.6698 38.6561 39.058 39.1668 38.539C39.6824 38.015 40.2981 37.6498 40.8432 37.3773C41.3791 37.1094 41.9787 36.8706 42.4383 36.6754C43.5392 36.2078 43.9597 35.9193 44.1127 35.6561C44.2638 35.3955 44.3059 34.8816 44.1615 33.6969C44.1015 33.2045 44.0087 32.565 43.9703 31.9757C43.9312 31.3759 43.933 30.6657 44.1208 29.9656C44.3093 29.2632 44.6638 28.6518 44.9977 28.1569C45.3232 27.6743 45.7252 27.1694 46.017 26.7836C46.7121 25.8644 46.9463 25.3826 46.9467 25.0217ZM50.2203 25.0217C50.2199 26.6244 49.2518 27.9312 48.6272 28.7571C48.2588 29.2443 47.9713 29.6031 47.7117 29.988C47.4606 30.3603 47.334 30.6217 47.2824 30.814C47.2303 31.0086 47.2079 31.3051 47.2377 31.762C47.2681 32.2294 47.337 32.6981 47.4106 33.3022C47.5335 34.3101 47.7296 35.9477 46.9427 37.302C46.1572 38.6532 44.6464 39.2941 43.718 39.6885C43.1631 39.9242 42.7219 40.097 42.306 40.3049C41.8998 40.508 41.6505 40.6816 41.5004 40.8339C41.3454 40.9914 41.1723 41.2473 40.9714 41.6558C40.7642 42.0772 40.5945 42.5115 40.357 43.0698C39.9573 44.0093 39.3109 45.5038 37.9318 46.2843C36.5669 47.0566 34.9656 46.8679 33.9585 46.7462C33.3637 46.6743 32.9008 46.6068 32.4387 46.5793C31.9904 46.5528 31.683 46.5772 31.4642 46.6363C31.2471 46.695 30.9701 46.8283 30.5975 47.0778C30.2121 47.3358 29.8531 47.6252 29.3727 47.9893C28.557 48.6074 27.2629 49.5738 25.6678 49.5741C24.0725 49.5741 22.7663 48.6009 21.9467 47.9811C21.4623 47.6148 21.1007 47.3256 20.7159 47.0676C20.3436 46.8181 20.0782 46.6912 19.8797 46.6383C19.6748 46.584 19.3772 46.5624 18.9316 46.5916C18.4709 46.6217 18.0184 46.6897 17.4179 46.7625C16.3904 46.887 14.7991 47.061 13.412 46.2884C11.9885 45.4951 11.3482 43.9892 10.9543 43.0393C10.7215 42.4778 10.5594 42.0515 10.3582 41.6375C10.1644 41.2387 9.99995 40.9984 9.85364 40.8542C9.69451 40.6977 9.43665 40.5237 9.02763 40.3212C8.60704 40.113 8.17003 39.9403 7.61365 39.7027C6.67437 39.3016 5.18752 38.6569 4.39506 37.3061C3.59156 35.9359 3.79435 34.3183 3.92305 33.3164C3.99963 32.7203 4.07139 32.2586 4.10209 31.7946C4.13187 31.3444 4.11054 31.0337 4.05123 30.8119C3.99201 30.5908 3.857 30.316 3.60974 29.9473C3.35313 29.5646 3.06666 29.2083 2.70235 28.7306C2.0814 27.9164 1.11377 26.6289 1.1134 25.0217C1.1134 23.4186 2.08174 22.1104 2.70642 21.2843C3.07485 20.7972 3.36234 20.4383 3.62195 20.0535C3.87307 19.6811 3.99964 19.4197 4.05123 19.2275C4.10372 19.0316 4.12544 18.7404 4.09599 18.2957C4.06562 17.8377 3.99702 17.3832 3.92305 16.784C3.79655 15.7591 3.61456 14.1655 4.36861 12.7801C5.15143 11.342 6.67142 10.6989 7.62382 10.3062C8.18908 10.073 8.61938 9.91223 9.03984 9.71004C9.44545 9.51492 9.69338 9.34743 9.84346 9.19735C10.0013 9.03949 10.1749 8.78482 10.3765 8.37948C10.5837 7.96278 10.7559 7.52556 10.9909 6.9716C11.3878 6.03626 12.0274 4.5433 13.3815 3.74894C14.7515 2.94538 16.3692 3.14823 17.3711 3.27694C17.9672 3.35351 18.429 3.42527 18.8929 3.45597C19.3432 3.48576 19.6538 3.46442 19.8756 3.40511C20.0967 3.34593 20.3715 3.21093 20.7403 2.96362C21.1229 2.70703 21.4793 2.42052 21.9569 2.05623C22.7713 1.43517 24.0602 0.467285 25.6678 0.467285C27.2705 0.46765 28.5773 1.43574 29.4032 2.0603C29.8904 2.42874 30.2492 2.71622 30.6341 2.97583C31.0065 3.22702 31.2678 3.35352 31.4601 3.40511C31.656 3.45764 31.947 3.47933 32.3919 3.44987C32.8499 3.41952 33.3043 3.3509 33.9035 3.27694C34.9284 3.15044 36.5221 2.96849 37.9074 3.72249C39.3456 4.50527 39.9886 6.02528 40.3814 6.9777C40.6145 7.54292 40.7753 7.97329 40.9775 8.39372C41.1726 8.79923 41.3401 9.04725 41.4902 9.19735C41.648 9.35518 41.9028 9.52884 42.3081 9.73039C42.7247 9.93751 43.1621 10.1098 43.7159 10.3448C44.6513 10.7417 46.1442 11.3813 46.9386 12.7354C47.7422 14.1055 47.5393 15.7231 47.4106 16.725C47.334 17.3211 47.2623 17.7829 47.2316 18.2468C47.2018 18.6971 47.2231 19.0077 47.2824 19.2295C47.3416 19.4506 47.4766 19.7254 47.7239 20.0942C47.9805 20.4768 48.2671 20.8332 48.6313 21.3108C49.2524 22.1251 50.2203 23.4141 50.2203 25.0217Z" fill="#6BADDF"/>
<path d="M16.8948 16.6841V35.432H13.6193V16.6841H16.8948Z" fill="#6BADDF"/>
<path d="M27.1726 10.9653C27.7542 10.9653 28.3303 11.0815 28.8673 11.3051C29.4042 11.5287 29.8919 11.8567 30.3016 12.2694C30.7115 12.6825 31.0363 13.173 31.2558 13.7119C31.4739 14.2474 31.5824 14.8204 31.5793 15.3985L31.5813 15.4006C31.5789 16.5637 31.3005 17.7085 30.7736 18.7453L30.7757 18.7473L30.4969 19.3027H32.3239C33.7418 19.3029 35.1014 19.8668 36.104 20.8693C37.0965 21.8618 37.6551 23.2043 37.6665 24.6067H37.6706C37.6826 25.0565 37.6257 25.5047 37.5099 25.9393L37.5119 25.9413L36.2465 31.0256C35.9585 32.1835 35.2922 33.212 34.3523 33.9471C33.4121 34.6822 32.252 35.0823 31.0585 35.0824H21.0528L16.882 32.8993H15.1039V29.6258H17.6897L18.0458 29.813L21.8564 31.8088H31.0585C31.5208 31.8087 31.9697 31.6539 32.3341 31.3694C32.6986 31.0844 32.9589 30.6852 33.0706 30.2362L34.3361 25.1499L34.3422 25.1296L34.3462 25.1092C34.3835 24.9741 34.4008 24.8343 34.3971 24.6942V24.6494C34.3969 24.0998 34.1774 23.5732 33.7888 23.1846C33.4001 22.796 32.8736 22.5764 32.3239 22.5763H25.2011L27.848 17.2845L27.8541 17.2703C28.1509 16.689 28.3065 16.0451 28.3078 15.3924V15.3843C28.309 15.2346 28.2808 15.0855 28.2244 14.9469C28.1679 14.8081 28.0837 14.6809 27.9782 14.5745C27.8729 14.4686 27.7479 14.3838 27.61 14.3263C27.4735 14.2695 27.3265 14.2416 27.1787 14.2409C27.011 14.2472 26.8462 14.2887 26.6965 14.365C26.5399 14.4448 26.4034 14.5603 26.2977 14.7007L26.2815 14.7231L20.2247 22.4888H15.2565V19.2153H18.6276L23.6997 12.7089C24.1021 12.1814 24.6181 11.7511 25.2093 11.4495C25.809 11.1437 26.4709 10.9793 27.1441 10.9674L27.1726 10.9653Z" fill="#6BADDF"/>
</g>
<defs>
<clipPath id="clip0_62_44894">
<rect width="50" height="50" fill="white" transform="translate(0.667114 0.0219727)"/>
</clipPath>
</defs>
</svg>
