<svg width="51" height="51" viewBox="0 0 51 51" fill="none" xmlns="http://www.w3.org/2000/svg">
<path d="M7.85524 29.481L8.21535 29.6885L18.6259 35.6638C20.6683 36.8234 22.979 37.4274 25.3276 37.4176L25.3398 40.5426C22.4463 40.5546 19.6 39.8104 17.0838 38.3819L17.0777 38.3778L7.02313 32.606H3.45868V29.481H7.85524Z" fill="#6BADDF"/>
<path d="M47.2085 29.481V32.606H43.6441L41.0277 34.1074L39.4733 31.3954L42.814 29.481H47.2085Z" fill="#6BADDF"/>
<path d="M29.2216 12.3328C30.6562 11.7235 32.2208 11.4809 33.7728 11.6248C35.3244 11.7687 36.8165 12.2944 38.1144 13.1567L41.7216 15.5432H47.2087V18.6682H40.7796L40.387 18.4078L36.3871 15.7629L36.3851 15.7609C35.5177 15.1846 34.5208 14.8316 33.4839 14.7355C32.4471 14.6394 31.4027 14.8026 30.4443 15.2096L30.4423 15.2075L19.8629 19.7282L19.8568 19.7323C19.5844 19.8469 19.3505 20.0378 19.1833 20.2816C19.0162 20.5254 18.9215 20.8121 18.9128 21.1076C18.904 21.4031 18.982 21.6946 19.1345 21.9478C19.2869 22.201 19.5082 22.4052 19.7734 22.5358L19.7774 22.5378C20.4999 22.8965 21.2962 23.0831 22.1029 23.0831H22.109C22.4331 23.0841 22.7564 23.057 23.0754 23.0017L23.3948 22.9366L29.9601 21.3029L30.5705 22.2164L39.1561 35.0968L33.5592 38.3704L33.5429 38.3805C31.04 39.8015 28.2097 40.5472 25.3316 40.5432L25.3357 37.4182C27.6714 37.4215 29.9675 36.8155 31.9987 35.6624L34.7168 34.0715L28.5807 24.8653L24.1272 25.9741L24.1068 25.9802C23.4509 26.1338 22.7785 26.2077 22.1049 26.2061H22.1008L22.0988 26.2081C20.8114 26.2074 19.541 25.9098 18.3879 25.3373C17.5876 24.9419 16.9175 24.324 16.4571 23.5592C15.9958 22.7927 15.7635 21.9103 15.7898 21.016C15.8162 20.1217 16.0998 19.2537 16.6056 18.5156C17.0481 17.8701 17.6446 17.347 18.339 16.9938L18.6442 16.8514L29.2196 12.3348L29.2216 12.3328Z" fill="#6BADDF"/>
<path d="M16.8946 11.6248C18.2524 11.4989 19.6191 11.6685 20.9005 12.1212L21.4437 12.3328L21.4518 12.3369L25.9522 14.2737L24.7152 17.1444L20.2149 15.2076C19.2588 14.8032 18.2172 14.6398 17.1835 14.7356C16.1466 14.8317 15.1496 15.1847 14.2822 15.761L14.2782 15.763L10.2783 18.4078L9.88772 18.6683H3.45868V15.5433H8.94574L12.5529 13.1568L13.0473 12.8496C14.2239 12.1688 15.5365 11.7507 16.8946 11.6248Z" fill="#6BADDF"/>
<path d="M48.7712 13.147V35.022H45.6462V13.147H48.7712Z" fill="#6BADDF"/>
<path d="M5.02118 13.147V35.022H1.89618V13.147H5.02118Z" fill="#6BADDF"/>
</svg>
