<svg width="24" height="25" viewBox="0 0 24 25" fill="none" xmlns="http://www.w3.org/2000/svg">
<g clip-path="url(#clip0_154_313)">
<path d="M1.50037 18.7017H8.18037C8.68202 18.7017 9.17875 18.8005 9.64222 18.9924C10.1057 19.1844 10.5268 19.4658 10.8815 19.8205C11.2362 20.1752 11.5176 20.5963 11.7096 21.0598C11.9016 21.5233 12.0004 22.02 12.0004 22.5217H1.50037V18.7017Z" stroke="url(#paint0_linear_154_313)" stroke-width="1.5" stroke-miterlimit="10"/>
<path d="M15.8204 18.7017H22.5004V22.5217H12.0004C12.0004 21.5085 12.4028 20.5369 13.1192 19.8205C13.8356 19.1041 14.8072 18.7017 15.8204 18.7017Z" stroke="url(#paint1_linear_154_313)" stroke-width="1.5" stroke-miterlimit="10"/>
<path d="M1.50037 6.2915H8.18037C8.68202 6.2915 9.17875 6.39031 9.64222 6.58228C10.1057 6.77426 10.5268 7.05564 10.8815 7.41036C11.2362 7.76508 11.5176 8.18619 11.7096 8.64965C11.9016 9.11312 12.0004 9.60985 12.0004 10.1115V22.5215H1.50037V6.2915Z" stroke="url(#paint2_linear_154_313)" stroke-width="1.5" stroke-miterlimit="10"/>
<path d="M19.6404 6.2915H22.5004V22.5215H12.0004V10.1115C12.0004 9.09838 12.4028 8.12674 13.1192 7.41036C13.8356 6.69397 14.8072 6.2915 15.8204 6.2915" stroke="url(#paint3_linear_154_313)" stroke-width="1.5" stroke-miterlimit="10"/>
<path d="M19.6407 13.022L17.7307 14.932L15.8207 13.022V3.432C15.8194 3.1808 15.8679 2.93184 15.9634 2.69951C16.0589 2.46718 16.1996 2.25609 16.3772 2.07847C16.5548 1.90085 16.7659 1.76021 16.9982 1.66469C17.2305 1.56917 17.4795 1.52067 17.7307 1.522C18.2373 1.522 18.7231 1.72323 19.0813 2.08143C19.4395 2.43962 19.6407 2.92544 19.6407 3.432V13.022Z" stroke="url(#paint4_linear_154_313)" stroke-width="1.5" stroke-miterlimit="10"/>
</g>
<defs>
<linearGradient id="paint0_linear_154_313" x1="12.0004" y1="20.6117" x2="1.50037" y2="20.6117" gradientUnits="userSpaceOnUse">
<stop stop-color="#01193F"/>
<stop offset="1" stop-color="#023B97"/>
</linearGradient>
<linearGradient id="paint1_linear_154_313" x1="22.5004" y1="20.6117" x2="12.0004" y2="20.6117" gradientUnits="userSpaceOnUse">
<stop stop-color="#01193F"/>
<stop offset="1" stop-color="#023B97"/>
</linearGradient>
<linearGradient id="paint2_linear_154_313" x1="12.0004" y1="14.4065" x2="1.50037" y2="14.4065" gradientUnits="userSpaceOnUse">
<stop stop-color="#01193F"/>
<stop offset="1" stop-color="#023B97"/>
</linearGradient>
<linearGradient id="paint3_linear_154_313" x1="22.5004" y1="14.4065" x2="12.0004" y2="14.4065" gradientUnits="userSpaceOnUse">
<stop stop-color="#01193F"/>
<stop offset="1" stop-color="#023B97"/>
</linearGradient>
<linearGradient id="paint4_linear_154_313" x1="19.6407" y1="8.22699" x2="15.8207" y2="8.22699" gradientUnits="userSpaceOnUse">
<stop stop-color="#01193F"/>
<stop offset="1" stop-color="#023B97"/>
</linearGradient>
<clipPath id="clip0_154_313">
<rect width="24" height="24" fill="white" transform="translate(0.000366211 0.0219727)"/>
</clipPath>
</defs>
</svg>
