<svg width="50" height="51" viewBox="0 0 50 51" fill="none" xmlns="http://www.w3.org/2000/svg">
<g clip-path="url(#clip0_62_44885)">
<path d="M27.9589 16.7071L33.975 17.5982L29.6272 21.9419L30.6689 28.1471L25.2327 25.2317L19.7985 28.1471L20.8382 21.9419L16.4945 17.5982L22.5085 16.7071L25.2347 11.0044L27.9589 16.7071ZM25.076 18.8942L24.7017 19.6775L23.8431 19.8036L23.3752 19.8708L23.7373 20.2329L24.3294 20.827L24.191 21.655L24.1097 22.1372L25.2347 21.535L26.0038 21.948L26.3578 22.1372L26.2784 21.655L26.1381 20.827L26.7321 20.2329L27.0902 19.8728L26.6243 19.8036L25.7678 19.6775L25.3934 18.8942L25.2327 18.5605L25.076 18.8942Z" fill="#6BADDF"/>
<path d="M15.3078 43.7999V37.436C15.3075 36.5052 15.1127 35.5844 14.7341 34.7341C14.3555 33.884 13.802 33.1232 13.1106 32.5002V32.4982C10.8416 30.4759 9.11332 27.9184 8.08533 25.058C7.05641 22.1947 6.76003 19.1192 7.22473 16.1123C7.68963 13.1051 8.90073 10.2612 10.7465 7.84204C12.5924 5.42277 15.0162 3.50399 17.794 2.2614C20.5717 1.01897 23.6165 0.490989 26.6502 0.727379C29.684 0.963811 32.6108 1.95649 35.1626 3.61434C37.7143 5.27222 39.8091 7.5444 41.2579 10.2204C42.7063 12.8955 43.4633 15.8901 43.4572 18.9321L43.4308 19.8945C43.3102 22.1358 42.7749 24.3393 41.85 26.3906C40.7945 28.7313 39.2532 30.8199 37.3313 32.5226C36.6432 33.1397 36.0946 33.8972 35.72 34.7423C35.3454 35.5875 35.1555 36.5033 35.1605 37.4278V43.7999C35.1605 45.3321 34.5513 46.8017 33.4678 47.8852C32.3844 48.9686 30.9147 49.5779 29.3825 49.5779H21.0858C19.5536 49.5779 18.084 48.9686 17.0005 47.8852C15.9171 46.8017 15.3078 45.3321 15.3078 43.7999ZM18.5671 43.7999C18.5671 44.4681 18.8311 45.1096 19.3036 45.5821C19.7761 46.0546 20.4176 46.3186 21.0858 46.3186H29.3825C30.0507 46.3186 30.6923 46.0546 31.1648 45.5821C31.6372 45.1096 31.9012 44.4681 31.9012 43.7999V37.436C31.895 36.0538 32.1814 34.6855 32.7415 33.4219C33.3028 32.1555 34.1271 31.0222 35.1585 30.0975L35.1666 30.0914L35.7444 29.5522C37.0573 28.2601 38.1206 26.7334 38.8796 25.0499C39.747 23.126 40.1962 21.0404 40.198 18.9301V18.9281C40.2033 16.429 39.5832 13.9683 38.3934 11.7707C37.2035 9.57314 35.482 7.70814 33.3864 6.34668C31.291 4.98541 28.8871 4.17061 26.3959 3.97648C23.9049 3.78254 21.4053 4.2157 19.1246 5.23584C16.8434 6.25628 14.8523 7.8308 13.3364 9.81755C11.8206 11.8041 10.8272 14.1393 10.4454 16.6087C10.0636 19.0784 10.3061 21.6056 11.1513 23.9574C11.891 26.0153 13.0717 27.8823 14.6059 29.4302L15.2834 30.0731L15.2915 30.0792C16.3221 31.0076 17.1464 32.1425 17.7106 33.4097C18.2747 34.6769 18.5668 36.0488 18.5671 37.436V43.7999Z" fill="#6BADDF"/>
<path d="M33.5313 35.9575V39.2168H16.9379V35.9575H33.5313Z" fill="#6BADDF"/>
</g>
<defs>
<clipPath id="clip0_62_44885">
<rect width="50" height="50" fill="white" transform="translate(0.000366211 0.0219727)"/>
</clipPath>
</defs>
</svg>
