<svg width="24" height="25" viewBox="0 0 24 25" fill="none" xmlns="http://www.w3.org/2000/svg">
<g clip-path="url(#clip0_62_50359)">
<path d="M12.0002 6.01807L12.6287 7.33801L14.0429 7.54753L13.0163 8.57416L13.2573 10.0198L12.0002 9.33889L10.7431 10.0198L10.984 8.57416L9.9574 7.54753L11.3716 7.33801L12.0002 6.01807Z" stroke="#023B97" stroke-width="1.57137" stroke-miterlimit="10"/>
<path d="M20.9983 1.02197C21.529 1.02197 22.0379 1.23278 22.4131 1.60801C22.7884 1.98325 22.9992 2.49218 22.9992 3.02285V5.02372H18.9974V3.02285C18.9974 2.49218 19.2082 1.98325 19.5835 1.60801C19.9587 1.23278 20.4676 1.02197 20.9983 1.02197Z" stroke="#023B97" stroke-width="1.57137" stroke-miterlimit="10"/>
<path d="M14.996 19.02H1.00039V21.0209C0.999005 21.284 1.04981 21.5448 1.14987 21.7882C1.24993 22.0316 1.39726 22.2527 1.58334 22.4388C1.76942 22.6249 1.99054 22.7722 2.23393 22.8723C2.47731 22.9723 2.73812 23.0232 3.00127 23.0218H16.9969C16.4662 23.0218 15.9573 22.811 15.5821 22.4357C15.2068 22.0605 14.996 21.5516 14.996 21.0209V19.02Z" stroke="#023B97" stroke-width="1.57137" stroke-miterlimit="10"/>
<path d="M5.0021 19.0194V3.02287C5.00071 2.75973 5.05152 2.49892 5.15158 2.25553C5.25164 2.01215 5.39897 1.79102 5.58505 1.60495C5.77112 1.41887 5.99225 1.27154 6.23563 1.17148C6.47902 1.07142 6.73983 1.02061 7.00298 1.022H20.9986C20.4679 1.022 19.959 1.23281 19.5838 1.60804C19.2085 1.98328 18.9977 2.49221 18.9977 3.02287V21.0203C18.9991 21.2834 18.9483 21.5442 18.8483 21.7876C18.7482 22.031 18.6009 22.2521 18.4148 22.4382C18.2287 22.6243 18.0076 22.7716 17.7642 22.8716C17.5208 22.9717 17.26 23.0225 16.9969 23.0211" stroke="#023B97" stroke-width="1.57137" stroke-miterlimit="10"/>
<path d="M7.99841 15.0181H16.0019" stroke="#023B97" stroke-width="1.57137" stroke-miterlimit="10"/>
</g>
<defs>
<clipPath id="clip0_62_50359">
<rect width="24" height="24" fill="white" transform="translate(0.000366211 0.0219727)"/>
</clipPath>
</defs>
</svg>
